<?xml version="1.0" standalone="no"?>
<!DOCTYPE svg PUBLIC "-//W3C//DTD SVG 20010904//EN"
 "http://www.w3.org/TR/2001/REC-SVG-20010904/DTD/svg10.dtd">
<svg version="1.0" xmlns="http://www.w3.org/2000/svg"
 width="512.000000pt" height="512.000000pt" viewBox="0 0 512.000000 512.000000"
 preserveAspectRatio="xMidYMid meet">

<g transform="translate(0.000000,512.000000) scale(0.100000,-0.100000)"
fill="#000000" stroke="none">
<path d="M1993 4173 c9 -2 23 -2 30 0 6 3 -1 5 -18 5 -16 0 -22 -2 -12 -5z"/>
<path d="M2185 4171 c55 -5 123 -11 150 -14 44 -6 46 -5 15 3 -19 6 -87 12
-150 14 l-115 4 100 -7z"/>
<path d="M2518 4109 c73 -21 149 -46 169 -54 20 -8 38 -13 40 -11 10 9 -291
107 -326 105 -9 0 44 -18 117 -40z"/>
<path d="M1708 4133 c7 -3 16 -2 19 1 4 3 -2 6 -13 5 -11 0 -14 -3 -6 -6z"/>
<path d="M1630 4110 c-8 -5 -10 -10 -5 -10 6 0 17 5 25 10 8 5 11 10 5 10 -5
0 -17 -5 -25 -10z"/>
<path d="M1470 4045 c-25 -13 -42 -24 -39 -25 10 0 99 40 99 45 0 9 -15 4 -60
-20z"/>
<path d="M2747 4029 c7 -7 15 -10 18 -7 3 3 -2 9 -12 12 -14 6 -15 5 -6 -5z"/>
<path d="M2785 4012 c8 -9 55 -39 248 -159 4 -2 7 -2 7 0 0 6 -202 137 -240
157 -14 7 -20 8 -15 2z"/>
<path d="M1380 4000 c-9 -6 -10 -10 -3 -10 6 0 15 5 18 10 8 12 4 12 -15 0z"/>
<path d="M1287 3951 c-120 -70 -316 -220 -466 -356 -80 -73 -402 -485 -378
-485 3 0 27 30 53 68 179 252 365 454 518 562 42 30 107 79 143 108 36 29 96
71 134 93 59 36 78 49 66 49 -1 0 -33 -18 -70 -39z"/>
<path d="M1685 3745 c-25 -12 -26 -14 -5 -9 14 4 29 10 35 15 12 12 5 11 -30
-6z"/>
<path d="M3185 3740 c10 -11 20 -20 23 -20 3 0 -3 9 -13 20 -10 11 -20 20 -23
20 -3 0 3 -9 13 -20z"/>
<path d="M1558 3686 c-200 -115 -355 -243 -588 -490 -36 -38 -65 -72 -65 -76
0 -21 -91 -133 -118 -145 -18 -9 -23 -13 -12 -10 10 3 40 9 65 13 39 5 41 7
18 12 l-27 5 53 71 54 71 129 50 c216 86 425 148 580 173 l58 9 -62 -4 c-119
-9 -429 -98 -601 -174 -41 -18 -76 -30 -79 -28 -6 6 150 137 240 201 189 135
448 239 748 301 63 12 107 23 98 24 -59 4 -371 -76 -506 -130 -155 -61 -311
-153 -458 -271 -70 -55 71 86 165 166 113 96 206 163 315 225 49 28 85 51 80
51 -6 0 -45 -20 -87 -44z"/>
<path d="M3220 3716 c0 -2 8 -10 18 -17 15 -13 16 -12 3 4 -13 16 -21 21 -21
13z"/>
<path d="M3055 3658 c105 -79 189 -182 201 -245 3 -18 10 -36 16 -39 15 -9 -2
47 -30 99 -26 49 -151 176 -194 197 -16 8 -14 4 7 -12z"/>
<path d="M3395 3535 c40 -56 51 -66 29 -27 -10 18 -28 41 -38 50 -12 10 -8 0
9 -23z"/>
<path d="M2505 3495 c-140 -37 -315 -105 -395 -154 -49 -29 -18 -27 33 3 98
58 321 137 452 161 47 9 59 13 35 13 -19 1 -75 -10 -125 -23z"/>
<path d="M2728 3513 c7 -3 16 -2 19 1 4 3 -2 6 -13 5 -11 0 -14 -3 -6 -6z"/>
<path d="M3471 3415 c18 -33 55 -95 82 -138 41 -64 112 -212 141 -291 3 -10 9
-17 11 -14 5 4 -49 138 -81 200 -9 18 -48 87 -87 153 -74 127 -122 191 -66 90z"/>
<path d="M3161 3405 c40 -32 59 -42 59 -31 0 7 -83 66 -93 66 -6 0 10 -16 34
-35z"/>
<path d="M3504 3226 c11 -9 24 -16 30 -16 12 0 7 5 -24 19 -24 11 -24 11 -6
-3z"/>
<path d="M3521 3133 c18 -21 38 -42 43 -48 15 -17 -5 18 -31 53 -13 17 -29 32
-35 32 -7 0 4 -17 23 -37z"/>
<path d="M380 3019 c-17 -28 -29 -53 -26 -56 2 -3 12 10 22 29 9 18 24 43 32
56 8 12 12 22 9 22 -3 0 -19 -23 -37 -51z"/>
<path d="M2721 2978 c-69 -32 -290 -95 -393 -114 -115 -20 -316 -23 -327 -5
-5 8 -25 11 -57 9 l-49 -3 45 -14 c31 -10 94 -14 200 -14 146 0 163 2 290 36
74 20 162 45 194 57 33 11 61 18 63 16 2 -2 -30 -35 -72 -74 -41 -38 -75 -73
-75 -77 0 -3 39 29 88 73 48 44 101 91 117 106 36 30 34 31 -24 4z"/>
<path d="M2286 2944 c-54 -19 -140 -43 -190 -53 -50 -11 -79 -20 -64 -20 58
-2 312 67 367 99 33 19 -13 9 -113 -26z"/>
<path d="M1551 2895 l-71 -75 -83 0 c-104 0 -184 14 -255 46 -54 24 -76 27
-50 7 43 -32 138 -55 256 -60 l123 -6 -23 -26 c-13 -14 -32 -37 -43 -51 l-19
-25 20 20 c84 81 226 236 222 240 -3 3 -37 -28 -77 -70z"/>
<path d="M1869 2889 c-111 -85 -129 -101 -322 -280 l-147 -138 -46 19 c-50 22
-63 25 -49 11 6 -5 27 -14 49 -21 34 -11 37 -14 23 -28 -14 -14 -18 -13 -39 1
-47 33 -61 47 -55 53 4 4 2 13 -5 21 -8 11 2 31 51 93 34 44 59 80 57 80 -3 0
-33 -35 -67 -77 -34 -43 -63 -80 -66 -83 -2 -2 -15 9 -30 25 -19 23 -21 24 -9
5 9 -14 19 -31 22 -37 3 -7 -14 -43 -38 -80 -104 -158 -282 -481 -383 -697
-40 -84 -159 -393 -192 -496 -24 -78 -43 -258 -43 -415 0 -168 7 -235 50 -510
17 -104 36 -221 41 -258 6 -38 13 -66 15 -64 5 5 -16 160 -52 387 -19 117 -24
165 -15 168 6 2 11 14 11 26 0 21 16 45 83 122 28 32 158 124 175 124 5 0 15
-13 22 -29 6 -16 20 -37 31 -47 10 -9 -4 26 -33 82 -28 54 -62 126 -75 159
-29 74 -93 323 -93 363 0 46 57 192 141 362 138 277 233 415 448 652 l34 38
26 -20 c14 -11 67 -49 116 -84 50 -35 107 -81 127 -103 53 -55 105 -147 120
-212 12 -55 13 -55 16 -19 3 36 4 37 25 24 12 -8 33 -17 47 -20 24 -6 24 -6 3
5 -13 7 -22 23 -25 45 -3 27 0 34 17 37 19 4 19 4 -2 6 -14 1 -25 11 -31 30
-9 25 -7 30 11 39 21 10 21 11 -4 11 -20 1 -29 10 -43 42 -15 34 -16 43 -5 50
11 7 9 9 -7 9 -25 0 -68 55 -60 77 4 10 2 13 -8 10 -8 -3 -24 5 -36 18 -21 22
-21 24 -3 35 16 10 15 10 -5 5 -13 -4 -30 -1 -40 7 -15 12 -16 11 -3 -4 12
-16 11 -18 -10 -18 -24 0 -169 70 -169 81 0 9 301 286 380 350 36 29 92 70
124 91 71 46 74 48 54 48 -9 0 -58 -32 -109 -71z m-598 -376 c-11 -4 -1 -18
33 -48 l48 -41 -92 -105 c-200 -225 -351 -468 -464 -741 -102 -247 -159 -533
-156 -783 2 -120 -9 -187 -32 -210 -10 -10 -21 304 -14 395 4 47 18 129 32
181 14 52 26 105 26 119 0 25 85 267 114 322 8 16 12 32 10 37 -11 17 253 524
376 723 83 134 102 159 121 157 7 0 6 -3 -2 -6z m369 -148 c7 -9 11 -18 8 -21
-7 -7 -58 17 -58 28 0 14 37 9 50 -7z m55 -67 c35 -41 14 -51 -26 -12 -16 15
-29 31 -29 36 0 19 30 6 55 -24z m55 -88 c23 -45 24 -50 10 -50 -9 0 -60 72
-60 85 0 3 7 5 15 5 8 0 24 -18 35 -40z m37 -90 c6 -16 9 -30 5 -30 -11 0 -42
34 -42 47 0 25 26 13 37 -17z m0 -38 c7 -4 16 -23 19 -41 7 -31 6 -33 -13 -22
-12 6 -23 24 -25 41 -5 31 -1 35 19 22z m-1047 -779 c0 -33 60 -253 89 -323
19 -45 27 -76 20 -79 -30 -10 -99 -74 -139 -128 -25 -34 -49 -62 -54 -62 -13
-1 0 278 18 384 18 103 35 192 42 218 6 20 24 13 24 -10z m138 -435 c2 -10
-17 -28 -50 -48 -29 -18 -74 -53 -100 -78 -27 -25 -48 -42 -48 -36 0 17 96
127 136 156 42 29 57 31 62 6z"/>
<path d="M300 2874 c-22 -41 -56 -111 -75 -156 -51 -121 -112 -217 -172 -274
-36 -34 -54 -58 -51 -70 2 -14 16 -4 58 47 30 35 67 75 82 88 23 19 19 8 -23
-61 -29 -46 -64 -101 -79 -123 -36 -54 -46 -76 -22 -45 27 33 192 298 199 319
3 9 -11 -2 -31 -24 l-37 -40 41 80 c52 103 160 335 155 335 -2 0 -22 -34 -45
-76z"/>
<path d="M748 2895 c-21 -20 -38 -38 -38 -42 0 -4 12 5 28 19 15 14 38 32 52
41 14 10 18 17 10 17 -8 0 -32 -16 -52 -35z"/>
<path d="M3494 2750 c0 -114 -5 -211 -13 -252 -7 -37 -11 -73 -9 -80 9 -25 29
118 34 242 3 69 2 159 -3 200 -7 63 -9 44 -9 -110z"/>
<path d="M852 2858 c-2 -54 -4 -59 -34 -75 -18 -10 -53 -26 -78 -35 -25 -9
-36 -17 -26 -17 11 -1 46 11 78 27 64 30 72 42 65 113 -3 40 -4 39 -5 -13z"/>
<path d="M646 2857 c-14 -18 -47 -78 -73 -133 -43 -91 -47 -106 -51 -189 -3
-67 3 -128 23 -240 25 -142 43 -195 66 -195 5 0 1 12 -10 28 -13 17 -29 76
-46 166 -27 148 -32 257 -14 320 15 55 86 205 115 244 14 17 23 32 20 32 -3 0
-16 -15 -30 -33z"/>
<path d="M952 2860 c0 -19 2 -27 5 -17 2 9 2 25 0 35 -3 9 -5 1 -5 -18z"/>
<path d="M1145 2831 c6 -5 24 -13 40 -17 39 -9 30 0 -15 15 -19 6 -30 7 -25 2z"/>
<path d="M1240 2799 c24 -12 24 -12 -20 -21 -25 -5 -76 -7 -114 -3 -39 3 -68
4 -65 3 2 -2 15 -12 29 -23 23 -18 23 -18 10 -1 -14 18 -13 18 8 12 28 -9 232
3 232 14 0 4 -12 10 -27 14 -16 3 -39 8 -53 11 l-25 6 25 -12z"/>
<path d="M854 2665 c1 -92 -13 -123 -71 -157 -44 -26 -51 -47 -42 -128 l7 -65
-1 72 c0 78 6 91 58 123 17 11 40 37 50 59 15 34 16 50 8 108 l-10 68 1 -80z"/>
<path d="M1005 2729 c51 -15 161 -22 180 -11 15 8 8 11 -34 13 -29 2 -55 1
-57 -2 -2 -4 -23 -3 -46 2 -56 11 -81 10 -43 -2z"/>
<path d="M952 2700 c0 -14 2 -19 5 -12 2 6 2 18 0 25 -3 6 -5 1 -5 -13z"/>
<path d="M960 2640 c-29 -38 -56 -70 -61 -70 -5 0 -9 -6 -9 -12 1 -16 88 78
113 121 30 52 12 35 -43 -39z"/>
<path d="M594 2674 c-12 -17 -20 -52 -22 -94 -5 -77 4 -98 78 -200 26 -36 50
-72 53 -80 5 -13 6 -13 6 1 1 8 -20 44 -45 80 -25 35 -54 81 -65 101 -26 51
-25 132 2 177 24 40 18 54 -7 15z"/>
<path d="M697 2658 c-18 -18 -24 -26 -13 -17 60 47 88 49 126 9 23 -24 27 -26
23 -10 -15 56 -88 66 -136 18z"/>
<path d="M3782 2665 c0 -16 2 -22 5 -12 2 9 2 23 0 30 -3 6 -5 -1 -5 -18z"/>
<path d="M941 2654 c0 -11 3 -14 6 -6 3 7 2 16 -1 19 -3 4 -6 -2 -5 -13z"/>
<path d="M1996 2574 c55 -55 120 -130 144 -167 23 -37 43 -67 44 -67 1 0 2 15
2 33 1 28 -11 45 -110 143 -61 61 -127 121 -146 135 -19 13 11 -22 66 -77z
m170 -166 c21 -41 12 -34 -26 20 -24 34 -27 41 -11 27 13 -11 29 -32 37 -47z"/>
<path d="M331 2597 c-13 -21 -12 -21 5 -5 10 10 16 20 13 22 -3 3 -11 -5 -18
-17z"/>
<path d="M3793 2550 c0 -36 2 -50 4 -32 2 17 2 47 0 65 -2 17 -4 3 -4 -33z"/>
<path d="M217 2436 c-37 -51 -69 -102 -73 -112 -4 -10 26 28 66 86 85 124 82
120 77 120 -2 0 -34 -42 -70 -94z"/>
<path d="M3804 2345 c0 -77 2 -107 3 -67 2 40 2 103 0 140 -2 37 -3 4 -3 -73z"/>
<path d="M1530 2457 c0 -3 12 -12 26 -22 15 -9 23 -12 20 -6 -7 11 -46 35 -46
28z"/>
<path d="M3011 2313 c-228 -311 -394 -564 -475 -723 -38 -74 -71 -137 -72
-139 -11 -13 -12 15 -3 109 23 241 110 535 199 668 12 17 19 32 16 32 -4 0
-22 -24 -41 -54 -19 -30 -39 -57 -45 -61 -14 -9 -86 -135 -94 -165 -4 -14 12
10 34 54 23 43 43 76 45 74 2 -2 -14 -55 -35 -118 -48 -140 -76 -270 -90 -415
-6 -60 -13 -111 -14 -113 -2 -1 -24 7 -50 20 -35 17 -46 28 -46 45 0 13 -4 23
-10 23 -5 0 -10 -11 -10 -24 0 -20 -4 -23 -22 -20 -13 2 -3 -3 22 -11 64 -21
120 -47 120 -55 0 -4 -13 -10 -30 -13 -20 -5 -63 5 -134 28 -131 44 -150 44
-62 -2 160 -82 256 -182 307 -319 12 -33 26 -64 31 -70 5 -7 4 -14 -4 -17 -7
-3 -96 -64 -198 -137 -261 -186 -355 -230 -545 -255 -55 -7 -86 -13 -69 -14
l31 -1 -29 -112 c-21 -80 -31 -143 -33 -218 l-4 -105 9 83 c10 97 24 168 52
274 21 76 22 78 57 83 212 33 276 66 654 342 40 29 77 53 82 53 6 0 30 -19 53
-43 l42 -43 -59 -155 c-32 -85 -72 -197 -89 -249 -31 -97 -67 -258 -60 -266 3
-2 13 33 22 79 23 104 63 230 138 432 54 145 132 325 140 325 2 0 2 -48 0
-107 -2 -60 -1 -105 3 -101 4 4 9 56 10 116 9 282 97 572 281 929 42 81 72
144 66 138 -30 -28 -430 -781 -420 -791 2 -2 47 83 100 189 97 191 147 278
113 192 -57 -141 -99 -280 -125 -410 -10 -53 -20 -98 -22 -99 -70 -51 -85 -55
-141 -31 -29 12 -35 20 -39 50 -6 49 24 44 33 -5 5 -27 7 -29 8 -10 0 15 5 30
11 36 5 5 6 22 2 39 -8 28 -9 28 -14 7 -10 -37 -40 -28 -71 21 l-17 27 29 0
c23 0 32 -6 40 -27 l11 -28 -6 29 c-3 18 0 32 8 38 8 5 -5 6 -33 2 -35 -4 -53
-2 -73 11 -14 10 -23 21 -20 26 9 15 46 10 68 -8 19 -17 20 -17 7 -1 -7 10
-10 25 -7 34 5 12 2 15 -10 10 -11 -4 -26 2 -40 15 -26 25 -30 14 64 197 69
132 83 143 132 104 l23 -18 -31 -95 c-34 -105 -62 -235 -61 -283 0 -17 9 15
20 71 29 159 136 474 222 653 50 105 133 241 193 314 25 31 41 56 36 56 -5 0
-41 -44 -81 -97z m-178 -309 c-28 -62 -63 -152 -108 -281 -3 -9 -11 -9 -32 2
-15 8 -34 15 -40 15 -7 0 -13 4 -13 9 0 16 214 331 225 331 2 0 -12 -34 -32
-76z m-383 -588 c0 -2 -3 -11 -6 -20 -5 -12 -10 -13 -25 -5 -27 14 -24 29 6
29 14 0 25 -2 25 -4z m45 -16 c18 -20 17 -20 -13 -20 -34 0 -35 1 -26 24 8 21
17 20 39 -4z m227 -298 c-16 -22 -37 -61 -46 -86 -10 -25 -22 -46 -27 -46 -11
0 -69 79 -69 94 0 6 6 4 13 -4 7 -8 24 -24 37 -35 23 -18 23 -17 -2 11 -19 21
-25 33 -18 40 7 7 4 10 -12 10 -19 -1 -24 5 -26 31 l-3 32 40 -17 c31 -13 37
-20 28 -30 -6 -8 16 2 49 21 32 20 60 32 62 27 2 -5 -10 -27 -26 -48z"/>
<path d="M3462 2380 c0 -14 2 -19 5 -12 2 6 2 18 0 25 -3 6 -5 1 -5 -13z"/>
<path d="M3451 2334 c0 -11 3 -14 6 -6 3 7 2 16 -1 19 -3 4 -6 -2 -5 -13z"/>
<path d="M2113 2188 c-60 -121 -128 -286 -120 -294 2 -3 21 33 42 78 20 46 56
115 79 153 50 83 67 124 36 85 -28 -35 -25 -17 6 36 14 24 24 48 22 54 -2 6
-31 -45 -65 -112z m8 -25 c-12 -20 -14 -14 -5 12 4 9 9 14 11 11 3 -2 0 -13
-6 -23z"/>
<path d="M3410 2193 c-59 -229 -116 -386 -208 -571 -87 -174 -156 -276 -262
-387 -68 -71 -123 -135 -116 -135 4 0 19 14 33 30 14 17 27 29 29 27 7 -7 -63
-197 -116 -317 -169 -381 -322 -611 -520 -784 -30 -26 -44 -42 -30 -36 52 27
226 216 297 323 124 188 326 607 369 767 15 53 29 77 79 135 100 112 169 216
243 363 74 146 154 352 191 492 13 47 27 97 31 113 5 15 5 27 1 27 -5 0 -14
-21 -21 -47z"/>
<path d="M3794 2100 c0 -52 1 -74 3 -47 2 26 2 68 0 95 -2 26 -3 4 -3 -48z"/>
<path d="M272 2133 c-69 -89 -210 -325 -184 -310 5 4 29 42 52 85 24 42 71
119 106 170 66 94 78 121 26 55z"/>
<path d="M20 2119 c-12 -22 -20 -45 -18 -51 2 -6 14 12 25 40 26 62 22 68 -7
11z"/>
<path d="M468 2108 c-12 -24 -31 -61 -41 -83 -25 -54 -117 -391 -116 -424 1
-20 3 -17 11 14 38 159 107 383 139 453 40 87 44 111 7 40z"/>
<path d="M310 2104 c0 -10 -20 -41 -44 -70 -44 -54 -142 -231 -133 -241 3 -2
29 41 58 97 28 56 69 122 91 147 32 37 50 83 33 83 -3 0 -5 -7 -5 -16z"/>
<path d="M636 2003 c-30 -62 -150 -248 -166 -258 -6 -4 -10 -3 -10 2 0 7 44
128 79 216 6 16 7 26 2 23 -9 -6 -101 -247 -101 -265 0 -5 -5 -22 -12 -38 -6
-15 -13 -37 -15 -48 -2 -11 -14 -56 -28 -100 -13 -44 -27 -107 -30 -140 l-5
-60 14 70 c8 39 28 115 44 170 25 85 40 115 101 202 63 88 152 234 165 267 2
8 8 7 16 -1 11 -10 10 -22 -3 -65 -22 -70 -34 -204 -18 -194 6 4 11 31 11 59
0 29 10 85 21 125 12 40 20 74 18 76 -2 3 -15 7 -29 11 -23 5 -28 0 -54 -52z"/>
<path d="M3741 1924 c-5 -22 -15 -59 -21 -83 -6 -23 -9 -45 -7 -47 2 -3 14 32
25 78 12 45 19 84 17 86 -2 2 -8 -13 -14 -34z"/>
<path d="M21 1685 c-12 -37 -21 -77 -20 -89 0 -11 11 17 24 64 28 102 25 119
-4 25z"/>
<path d="M3371 1669 c-7 -22 -11 -43 -8 -45 2 -2 9 14 16 37 7 22 11 43 8 45
-2 2 -9 -14 -16 -37z"/>
<path d="M1106 1615 c-9 -13 -16 -31 -16 -40 0 -14 3 -14 26 1 24 17 27 16 69
-14 l43 -30 -21 36 c-44 78 -72 91 -101 47z m59 -5 c10 -11 13 -20 7 -20 -6 0
-14 5 -17 10 -4 7 -13 7 -26 0 -21 -12 -26 -1 -7 18 16 16 22 15 43 -8z"/>
<path d="M3647 1613 c-3 -10 -22 -79 -42 -153 -53 -194 -109 -348 -175 -485
-102 -212 -209 -362 -283 -402 -16 -8 -27 -17 -24 -20 9 -9 91 53 123 93 84
107 206 328 273 497 32 80 144 477 137 484 -2 3 -7 -4 -9 -14z"/>
<path d="M3306 1467 c-168 -486 -401 -917 -701 -1297 -117 -148 -132 -170 -80
-115 46 50 182 226 245 319 59 87 44 31 -22 -81 -66 -112 -112 -207 -124 -258
-11 -46 1 -27 31 50 23 57 132 265 139 265 1 0 -1 -24 -5 -52 -10 -70 -11
-288 -1 -288 4 0 7 54 8 119 2 171 21 308 49 351 19 30 125 102 125 85 0 -3
-9 -38 -20 -78 -43 -151 -61 -345 -41 -442 6 -29 9 0 10 103 1 185 40 392 74
392 5 0 3 7 -4 16 -12 15 -10 19 11 33 85 57 162 142 255 281 73 110 188 311
181 317 -2 2 -27 -39 -56 -93 -78 -145 -207 -331 -280 -404 -54 -54 -220 -171
-220 -155 0 3 15 28 33 57 99 156 243 447 323 650 48 122 125 350 122 359 -2
5 -25 -56 -52 -134z"/>
<path d="M3011 1573 c-10 -26 -10 -27 4 -9 8 11 15 23 15 28 0 15 -7 8 -19
-19z"/>
<path d="M1083 1465 c0 -44 2 -61 4 -37 2 23 2 59 0 80 -2 20 -4 1 -4 -43z"/>
<path d="M2935 1430 c-80 -159 -183 -425 -171 -438 2 -2 14 27 27 65 28 84
112 290 141 346 37 71 67 137 63 137 -3 0 -30 -49 -60 -110z"/>
<path d="M1260 1475 c17 -25 33 -45 36 -45 3 0 -9 20 -26 45 -17 25 -33 45
-36 45 -3 0 9 -20 26 -45z"/>
<path d="M1319 1392 c11 -16 28 -35 38 -43 10 -8 3 5 -16 29 -37 47 -53 58
-22 14z"/>
<path d="M1092 1355 c0 -16 2 -22 5 -12 2 9 2 23 0 30 -3 6 -5 -1 -5 -18z"/>
<path d="M3477 1290 c-21 -49 -36 -94 -32 -99 3 -5 -5 -38 -18 -73 -77 -204
-246 -456 -360 -539 -22 -16 -34 -29 -27 -29 23 0 174 162 232 250 82 123 150
266 203 424 25 76 45 142 43 147 -2 5 -20 -31 -41 -81z"/>
<path d="M293 1295 c0 -38 2 -53 4 -32 2 20 2 52 0 70 -2 17 -4 1 -4 -38z"/>
<path d="M343 1265 c0 -38 2 -53 4 -32 2 20 2 52 0 70 -2 17 -4 1 -4 -38z"/>
<path d="M1390 1305 c13 -14 26 -25 28 -25 3 0 -5 11 -18 25 -13 14 -26 25
-28 25 -3 0 5 -11 18 -25z"/>
<path d="M1102 1305 c0 -11 3 -29 8 -40 11 -25 11 1 0 35 -6 20 -8 21 -8 5z"/>
<path d="M2659 1263 c-7 -16 -15 -31 -17 -35 -2 -5 0 -8 5 -8 9 0 35 61 29 67
-1 2 -9 -9 -17 -24z"/>
<path d="M1733 1273 c9 -2 25 -2 35 0 9 3 1 5 -18 5 -19 0 -27 -2 -17 -5z"/>
<path d="M1420 1267 c0 -2 15 -16 33 -33 l32 -29 -29 33 c-28 30 -36 37 -36
29z"/>
<path d="M1126 1220 c7 -27 56 -122 60 -117 1 1 -13 34 -32 72 -20 39 -32 59
-28 45z"/>
<path d="M2635 1199 c-4 -6 -5 -12 -2 -15 2 -3 7 2 10 11 7 17 1 20 -8 4z"/>
<path d="M221 1180 c0 -14 6 -54 14 -90 8 -36 14 -100 15 -143 0 -160 41 -410
90 -551 10 -30 15 -57 12 -61 -4 -3 -2 -9 4 -13 6 -4 40 -76 74 -159 35 -84
67 -153 72 -153 4 0 -3 24 -15 53 -13 28 -24 55 -25 60 -1 4 -9 21 -18 38 -8
17 -13 33 -10 37 3 3 -1 13 -10 23 -15 17 -15 22 0 60 34 84 32 185 -8 404
-20 110 -42 238 -50 285 -8 47 -14 74 -15 60 -1 -27 35 -258 69 -440 23 -120
23 -215 0 -294 -13 -43 -22 -39 -39 16 -9 28 -9 47 0 80 18 67 12 164 -15 268
-27 102 -84 272 -85 254 -1 -6 10 -44 25 -85 40 -117 74 -269 74 -330 0 -66
-9 -119 -20 -119 -10 0 -66 232 -79 330 -18 132 -24 247 -11 230 8 -12 9 -9 4
12 -3 15 -16 78 -29 140 -13 62 -23 102 -24 88z"/>
<path d="M302 1160 c0 -19 2 -27 5 -17 2 9 2 25 0 35 -3 9 -5 1 -5 -18z"/>
<path d="M343 1110 c0 -30 2 -43 4 -27 2 15 2 39 0 55 -2 15 -4 2 -4 -28z"/>
<path d="M1559 1125 c7 -11 33 -35 57 -54 41 -31 44 -36 29 -50 -11 -12 -45
-17 -138 -21 -119 -5 -120 -6 -57 -13 93 -12 262 -5 267 10 3 7 -17 27 -43 45
-26 18 -66 49 -88 68 -21 19 -34 26 -27 15z"/>
<path d="M980 725 c0 -19 67 -134 99 -168 103 -115 107 -128 67 -213 -34 -72
-80 -121 -150 -156 -101 -51 -245 -84 -259 -60 -3 4 -8 30 -11 57 -4 28 -20
140 -36 250 -35 235 -32 165 4 -115 13 -107 27 -221 31 -252 7 -61 22 -81 19
-25 -1 17 -4 38 -6 46 -2 10 9 15 42 18 58 4 132 26 212 62 115 51 189 164
196 299 5 78 -8 111 -50 133 -20 10 -19 8 5 -19 20 -20 30 -44 33 -73 l5 -44
-28 35 c-15 19 -42 49 -59 65 -26 26 -74 97 -74 111 0 11 94 2 120 -11 17 -9
52 -51 85 -102 64 -100 116 -157 193 -214 45 -34 52 -44 52 -74 0 -33 1 -34
43 -37 42 -3 42 -3 45 -46 3 -37 7 -44 35 -56 18 -7 69 -41 115 -76 46 -34 85
-60 88 -58 4 5 -122 109 -153 126 -13 8 -15 30 -10 158 4 122 9 165 31 234 14
47 26 90 25 95 0 25 -21 -31 -44 -116 -21 -78 -25 -117 -25 -227 0 -130 0
-132 -20 -120 -13 9 -20 24 -20 45 0 40 -35 67 -73 58 -24 -6 -26 -4 -25 26 1
26 -6 39 -36 64 -36 30 -38 34 -43 111 -4 55 0 97 11 140 9 34 16 65 16 68 0
3 -17 5 -37 5 -37 -1 -37 -2 -8 -8 17 -3 29 -11 28 -16 -1 -6 -7 -32 -14 -58
-6 -27 -9 -85 -7 -128 l5 -80 -44 43 c-25 24 -66 77 -93 118 -27 41 -61 90
-75 107 -30 37 -90 58 -137 48 -38 -9 -61 16 -25 27 18 5 16 6 -10 7 -18 1
-33 -1 -33 -4z"/>
<path d="M1058 713 c6 -2 18 -2 25 0 6 3 1 5 -13 5 -14 0 -19 -2 -12 -5z"/>
<path d="M1128 703 c6 -2 18 -2 25 0 6 3 1 5 -13 5 -14 0 -19 -2 -12 -5z"/>
<path d="M1183 693 c9 -2 23 -2 30 0 6 3 -1 5 -18 5 -16 0 -22 -2 -12 -5z"/>
<path d="M1243 683 c9 -2 23 -2 30 0 6 3 -1 5 -18 5 -16 0 -22 -2 -12 -5z"/>
<path d="M1313 673 c9 -2 23 -2 30 0 6 3 -1 5 -18 5 -16 0 -22 -2 -12 -5z"/>
<path d="M2238 653 c-8 -15 -22 -41 -33 -56 -13 -20 -14 -27 -4 -25 7 2 23 25
36 52 25 51 25 78 1 29z"/>
<path d="M1463 653 c9 -2 23 -2 30 0 6 3 -1 5 -18 5 -16 0 -22 -2 -12 -5z"/>
<path d="M1555 645 c23 -8 125 -11 113 -4 -7 5 -38 8 -68 8 -30 0 -50 -2 -45
-4z"/>
<path d="M8 455 c4 -93 7 -232 7 -307 0 -76 3 -138 8 -138 4 0 7 73 8 163 1
183 10 172 34 -43 l14 -125 -4 95 c-3 52 -14 147 -25 210 -12 63 -28 160 -35
215 l-14 100 7 -170z"/>
<path d="M2130 456 c-68 -144 -191 -462 -172 -441 5 6 29 62 52 125 74 198
190 458 177 395 -3 -11 -23 -83 -45 -160 -56 -193 -94 -344 -90 -356 2 -6 21
58 42 142 32 127 91 329 112 383 3 7 -2 13 -12 13 -12 0 -32 -32 -64 -101z"/>
<path d="M2509 242 c-54 -59 -132 -133 -177 -167 -87 -64 -105 -89 -25 -34 26
18 87 71 136 118 48 46 87 80 87 76 0 -4 7 -2 15 5 9 7 14 19 11 26 -2 7 4 20
16 30 18 17 43 54 36 54 -2 0 -46 -48 -99 -108z m32 5 c-10 -9 -11 -8 -5 6 3
10 9 15 12 12 3 -3 0 -11 -7 -18z"/>
<path d="M2436 113 c-48 -60 -66 -85 -41 -58 51 55 139 165 132 165 -2 0 -43
-48 -91 -107z"/>
<path d="M1431 178 c-7 -18 -27 -63 -45 -100 -18 -38 -29 -68 -25 -68 18 0 98
184 86 196 -2 3 -10 -10 -16 -28z"/>
<path d="M1397 163 c-8 -15 -36 -56 -61 -90 -25 -35 -42 -63 -37 -63 12 0 125
170 118 177 -3 3 -12 -8 -20 -24z"/>
<path d="M387 100 c3 -36 10 -72 15 -80 6 -10 7 7 3 44 -10 85 -24 115 -18 36z"/>
<path d="M2820 46 c0 -14 4 -27 8 -30 5 -3 6 8 4 25 -5 35 -12 38 -12 5z"/>
</g>
</svg>
